<svg width="3324" height="3374" viewBox="0 0 3324 3374" fill="none" xmlns="http://www.w3.org/2000/svg">
<path d="M474.758 526.375C475.994 524.914 477.455 523.566 478.803 522.18C742.79 259.99 1169.37 226.28 1509.99 333.254C1676.52 385.504 1807.17 532.33 1963.73 605.181C2015.83 629.34 2070.74 645.259 2130.78 646.907C2287.87 651.214 2434.58 547.35 2591.26 559.298C2791.27 574.28 2909.07 776.541 2937.54 956.328C2984.51 1253.61 2848.47 1576.18 2679.09 1813.69C2586.13 1944.18 2481.52 2064.64 2381.14 2189.14C2303.27 2286.04 2251.95 2432.6 2354.92 2533.28C2491.63 2666.89 2533.69 2371.21 2694.86 2438.71C3096.13 2606.7 3050.35 2966.83 2959.26 3121C2876.11 3262.02 2715.8 3356.63 2552.34 3370C2526.39 3372.14 2500.31 3372.14 2474.36 3370" stroke="#CCDDE2" stroke-width="4"/>
<path d="M1197.99 2403.05V2404.29C1197.99 2431.82 1319.87 2536.8 1338.22 2556.24" stroke="#CCDDE2" stroke-width="4"/>
<path d="M818.749 3368.66C781.78 3369.89 746.834 3369.74 713.648 3368.39C329.579 3321.24 40.6835 2556.24 492.585 2324.02" stroke="#CCDDE2" stroke-width="4"/>
<path d="M1254.36 1386.09V611.024C1254.3 564.279 1216.42 526.399 1169.67 526.337H87.2059C40.5333 526.502 2.76761 564.352 2.70605 611.024V2147.79C2.76807 2194.51 40.6717 2232.35 87.3932 2232.33H1169.86C1180.36 2232.4 1190.77 2230.4 1200.5 2226.45" stroke="black" stroke-width="4" stroke-linecap="round" stroke-linejoin="round"/>
<rect x="40.6846" y="578.213" width="1175.69" height="1602.5" rx="18.62" fill="#9284b3"/>
<rect x="109.902" y="702.229" width="1050.11" height="300.019" rx="9.31" fill="#9284b3"/>
<ellipse cx="628.515" cy="797.553" rx="31.0507" ry="31.0507" fill="#d8d2e3"/>
<path d="M541.84 937.974C541.187 906.573 557.566 877.274 584.657 861.381C611.748 845.489 645.314 845.489 672.405 861.381C699.496 877.274 715.875 906.573 715.222 937.974H541.84Z" fill="#d8d2e3"/>
<path d="M214.929 1136.19H1031.42" stroke="white" stroke-width="5.4"/>
<path d="M214.929 1216.57H1031.42" stroke="white" stroke-width="5.4"/>
<path d="M214.929 1734.13H1031.42" stroke="white" stroke-width="5.4"/>
<path d="M404.568 1810.13H841.788" stroke="white" stroke-width="5.4"/>
<path d="M421.832 1520.33L356.697 1589.55C342.325 1604.83 320.896 1611.27 300.481 1606.47C280.067 1601.66 263.769 1586.32 257.726 1566.24C251.683 1546.15 256.814 1524.37 271.186 1509.1L336.284 1439.88L421.832 1520.33Z" fill="#bcb3d0"/>
<path d="M486.894 1451.04L421.759 1520.33L336.21 1439.88L401.383 1370.62C423.639 1347.09 460.727 1345.95 484.384 1368.08C507.824 1390.37 508.944 1427.38 486.894 1451.04Z" fill="#d8d2e3"/>
<path d="M740.057 1405.94C737.285 1392.54 764.777 1370.36 773.767 1365.53C807.214 1348 858.678 1361.22 876.994 1394.71C919.057 1471.49 800.884 1580.94 739.869 1607.98C732.865 1602.36 565.925 1477.48 605.029 1397.55C644.133 1317.62 730.356 1358.23 740.057 1405.94Z" fill="#d8d2e3"/>
<path d="M614.092 1542.81H705.071" stroke="white" stroke-width="5.4" stroke-linecap="round" stroke-linejoin="round"/>
<path d="M659.563 1588.28V1497.3" stroke="white" stroke-width="5.4" stroke-linecap="round" stroke-linejoin="round"/>
<path fill-rule="evenodd" clip-rule="evenodd" d="M2416.64 1563.26C2416.64 1563.26 2206.52 1450.03 2071 1422.65C2071 1422.65 2070.07 1442.88 2047.52 1492.8C2024.97 1542.73 1958.45 1690.27 1958.45 1690.27L1858.59 1614.42L1860.09 1727.5L1586.14 2020.1L1412.98 1641.05L1436.06 1534.42L1337.4 1572.21L1284.7 1384.18C1284.7 1384.18 1024.91 1442.61 801.147 1622.66C577.388 1802.71 513.301 2083.37 492.513 2324.02C471.726 2564.67 496.708 2818.43 814.632 2904.17C814.632 2904.17 964.004 2941.62 1085.62 2891.51C1123.53 2875.85 1178.59 2861.24 1236.34 2848.43L1234.47 2849.11C1234.47 2849.11 1208.25 2940.09 1132.29 2989.6C1132.29 2989.6 1265.37 3090.73 1492.77 3134.82C1720.16 3178.91 2200.68 3205.27 2442.86 2995.15C2685.05 2785.02 2694.94 2438.6 2694.94 2438.6C2694.94 2438.6 2773.6 1769.75 2416.64 1563.26ZM1172.33 2154.38C1149.32 2153.62 1131.2 2134.51 1131.66 2111.49C1132.13 2088.47 1151.02 2070.1 1174.04 2070.28C1197.06 2070.46 1215.67 2089.11 1215.78 2112.13C1215.37 2135.76 1195.97 2154.63 1172.33 2154.38ZM2094.46 2546.64C2094.96 2543.96 2095.38 2541.73 2095.73 2539.99C2101.4 2511.61 2062.83 2494.04 1964.06 2449.05C1949.94 2442.62 1934.59 2435.62 1917.96 2427.96C1785.03 2366.68 1506.21 2451.59 1506.21 2451.59C1506.21 2451.59 1382.72 2656.44 1505.39 2800.15C1564.12 2794.91 1606.52 2793.3 1606.52 2793.3C1711.87 2782.37 1784.68 2792.28 1842.55 2800.16C1892.75 2807 1931.7 2812.3 1970.89 2801.13C2050.7 2778.37 2085.55 2593.83 2094.46 2546.64Z" fill="#bcb3d0"/>
<path d="M2329.71 3106.73V3370.04C1904.59 3370.04 1329.42 3369.37 913.888 3368.84C908.756 3233.33 900.666 2921.59 935.05 2919.38C979.06 2916.68 1025.62 2888.47 1079.33 2952.6C1133.04 3016.72 1357.89 3131.41 1672.85 3158.38C1987.81 3185.35 2253.41 3111.15 2312.4 3079.05C2312.44 3079.09 2329.71 3048.3 2329.71 3106.73Z" fill="#bcb3d0"/>
<path fill-rule="evenodd" clip-rule="evenodd" d="M1066.14 2112.32C1066.14 2054.79 1113.68 2008.16 1172.33 2008.16V2008.12C1230.95 2008.12 1278.52 2054.79 1278.52 2112.32C1278.52 2169.85 1230.99 2216.48 1172.33 2216.48C1113.68 2216.48 1066.14 2169.85 1066.14 2112.32ZM1251.55 2112.32C1251.55 2069.77 1216 2035.16 1172.33 2035.16C1128.66 2035.16 1093.15 2069.77 1093.15 2112.32C1093.15 2154.87 1128.66 2189.48 1172.33 2189.48C1216 2189.48 1251.55 2154.87 1251.55 2112.32Z" fill="white"/>
<path d="M1708.62 1538.01L1640.53 1614.53C1636.01 1618.16 1630.21 1619.78 1624.47 1619.02C1618.73 1618.26 1613.55 1615.17 1610.15 1610.49L1562.24 1507.41L1655.51 1433.29L1708.62 1538.01Z" fill="#9284b3"/>
<path d="M1665.43 1586.48L1694.31 1702.48L1610.04 1809.49L1547.11 1669.93L1593.74 1575.39" fill="#9284b3"/>
<path d="M1952.27 755.565C1937.29 758.936 1924.18 770.548 1914.18 782.945C1904.88 794.574 1897.01 807.274 1890.73 820.776C1890.73 820.776 1859.12 685.935 1845.78 568.962C1841.33 530.907 1827.99 510.531 1811.77 500.268C1778.33 479.068 1733.12 501.729 1733.12 501.729L1582.92 583.532C1554.1 599.41 1522.39 609.321 1489.66 612.672C1474.36 614.433 1458.92 614.433 1443.62 612.672C1360.88 571.771 1359.68 410.412 1460.22 409.288C1463.24 412.112 1466.08 415.127 1468.72 418.315C1467.27 415.344 1465.92 412.385 1464.67 409.438C1470.29 409.609 1475.89 410.236 1481.42 411.311C1489.66 412.922 1497.33 421.424 1502.47 427.379C1475.76 375.541 1504.23 310.218 1556.85 290.404C1588.84 278.381 1624.61 280.666 1657.98 287.707C1663.26 288.756 1668.51 289.992 1673.79 291.453C1757.46 316.698 1830.73 360.559 1884.85 433.784C1953.36 526.412 1970.47 643.686 1952.27 755.565Z" fill="#2E2E2E"/>
<path d="M998.314 2156.48C906.66 2564.75 1258.48 2496.35 1715.66 2415.86C1879.01 2387.13 2018.01 2458.03 2098.53 2524.18" stroke="black" stroke-width="5.4" stroke-linejoin="round"/>
<path d="M1284.7 1384.15C1076.93 1435.27 831.825 1559.29 696.984 1727.61C520.456 1947.66 483.488 2240.27 487.495 2514.18C491.241 2781.8 771.671 2966.64 1026.22 2908.81" stroke="black" stroke-width="5.4" stroke-linejoin="round"/>
<path d="M1392.31 1284.18H1392.46" stroke="black" stroke-width="5.4" stroke-linejoin="round"/>
<path d="M2121.01 2171.54C2121.01 2171.54 2128.5 2348.66 2098.53 2524.18C2084.94 2604.3 2063.55 2684.08 2030.18 2746.56C2011.94 2780.15 1977.08 2801.39 1938.86 2802.18C1904.64 2802.8 1870.41 2801.44 1836.35 2798.09C1542.77 2770.53 1267.62 2831.02 1066.97 2897.5C1053.49 2901.92 1039.93 2905.67 1026.29 2908.74C1152.86 3023.58 1478.46 3235.88 2094.08 3143.81C2921.85 3020.21 2663.14 1927.14 2663.14 1927.14C2640.67 1809.38 2570.48 1700.05 2486.09 1617.23C2390.5 1523.59 2205.17 1461.68 2079.17 1422.46" stroke="black" stroke-width="5.4" stroke-linejoin="round"/>
<path d="M1636.41 1216.68C1636.41 1216.68 1384.56 1171.73 1418.3 874.712C1433.29 742.568 1462.16 661.739 1489.47 612.522" stroke="black" stroke-width="5.4" stroke-linejoin="round"/>
<path d="M1874.92 1138.55C1921.44 1069.03 1914.33 976.741 1928.93 953.518C1951.41 917.486 2041.3 805.082 1987.37 764.592C1974.93 755.266 1963.06 753.356 1952.27 755.528C1915.98 763.618 1890.73 820.738 1890.73 820.738C1890.73 820.738 1859.16 685.898 1845.78 568.887C1832.41 451.875 1733.08 501.691 1733.08 501.691L1582.88 583.457C1554.08 599.368 1522.35 609.293 1489.62 612.635C1472.49 614.652 1455.17 614.513 1438.08 612.223C1321.97 597.241 1314.48 377.414 1447.67 402.471C1455.91 404.082 1463.59 412.585 1468.72 418.54C1441.97 366.701 1470.48 301.379 1523.1 281.565C1555.09 269.542 1590.86 271.826 1624.23 278.868C1728.44 300.854 1820.31 346.288 1884.85 433.784C1953.39 526.487 1970.55 643.76 1952.27 755.64" stroke="black" stroke-width="5.4" stroke-linejoin="round"/>
<path d="M1604.94 937.712H1550.97L1554.49 894.938L1568.91 721.781" stroke="black" stroke-width="5.4" stroke-linejoin="round"/>
<path d="M1554.38 894.938H1406.13C1384.24 894.938 1366.5 877.196 1366.5 855.31V721.818H1617.08V855.31C1617.1 877.202 1634.85 894.938 1656.75 894.938H1803.76C1825.65 894.938 1843.4 877.202 1843.42 855.31V721.818H1617.08" stroke="black" stroke-width="5.4" stroke-linejoin="round"/>
<path d="M1604.95 989.326C1604.95 989.326 1643.19 1002.81 1685.92 937.562" stroke="black" stroke-width="5.4" stroke-linejoin="round"/>
<path d="M1584.61 2033.21L1863.73 1723.46L1858.63 1614.38L1955.16 1697.57L2079.17 1422.61L2079.51 1421.9C2049.18 1404.03 2020.89 1382.92 1995.12 1358.94C1983.26 1347.8 1972.02 1336.16 1961.41 1324.03C1948.89 1309.82 1937.21 1294.88 1926.43 1279.31L1917.7 1266.98" stroke="black" stroke-width="5.4" stroke-linejoin="round"/>
<path d="M1767.69 1603.67L1710.23 1524.53L1648.95 1443.77L1777.58 1365.94L1917.81 1266.98L1961.3 1324.03L1975.9 1343.24L1940.43 1388.68L1663.45 1744.21V1744.36L1611.05 1809.49" stroke="black" stroke-width="5.4" stroke-linejoin="round"/>
<path d="M1499.06 1558.65L1648.88 1443.89L1464.82 1259.94L1395.08 1325.71L1611.01 1809.6L1584.61 2033.25L1413.02 1641.05L1435.98 1534.45L1337.32 1572.14L1280.05 1386.09C1345.88 1360.69 1405.39 1321.29 1454.48 1270.62L1464.9 1259.83" stroke="black" stroke-width="5.4" stroke-linejoin="round"/>
<path d="M1710.23 1538.01L1642.03 1614.53C1637.52 1618.16 1631.72 1619.78 1625.99 1619.02C1620.25 1618.25 1615.09 1615.17 1611.69 1610.49L1563.74 1507.41" stroke="black" stroke-width="5.4" stroke-linejoin="round"/>
<path d="M1667.05 1586.48L1695.96 1702.48" stroke="black" stroke-width="5.4" stroke-linejoin="round"/>
<path d="M1595.36 1575.39L1548.72 1669.93" stroke="black" stroke-width="5.4" stroke-linejoin="round"/>
<path d="M1917.7 1266.98L1874.92 1138.4C1863.28 1154.72 1848.27 1168.34 1830.91 1178.36" stroke="black" stroke-width="5.4" stroke-linejoin="round"/>
<path d="M1494.3 1138.4L1464.9 1259.83" stroke="black" stroke-width="5.4" stroke-linejoin="round"/>
<ellipse cx="1697.61" cy="810.063" rx="19.7016" ry="19.7017" fill="black"/>
<ellipse cx="1525.8" cy="810.063" rx="19.7015" ry="19.7017" fill="black"/>
<path d="M2075.87 1423.81C2075.87 1423.81 2208.39 1474.68 2089.36 1680.34C2051.9 1744.84 2031.6 1783.05 2021.23 1804.92" stroke="black" stroke-width="5.4" stroke-linejoin="round"/>
<path d="M1794.7 2257.76C1794.7 2257.76 1742.9 2234.57 1744.47 2220.3C1746.04 2206.03 1850.24 1865.23 1922.61 1821.1C1994.97 1776.98 2041.34 1815.03 2041.34 1815.03C2041.34 1815.03 2111.61 1853.09 2090.45 1952.46C2069.28 2051.83 1939.69 2289.19 1939.69 2289.19L1888.86 2271.81" stroke="black" stroke-width="5.4" stroke-linejoin="round"/>
<path d="M1234.51 1398.42C1234.51 1398.42 1159.22 1645.62 1174.58 2013.77" stroke="black" stroke-width="5.4" stroke-linejoin="round"/>
<ellipse cx="1172.24" cy="2112.36" rx="112.479" ry="108.284" transform="rotate(-0.28 1172.24 2112.36)" stroke="black" stroke-width="5.4" stroke-linejoin="round"/>
<path d="M2329.86 3370.04V3070.28V3062.61" stroke="black" stroke-width="5.4" stroke-linejoin="round"/>
<path d="M916.473 3368.96V2919.15V2919" stroke="black" stroke-width="5.4" stroke-linejoin="round"/>
<path d="M379.099 3368.02C379.099 3368.02 601.36 3368.43 913.927 3368.84C1329.68 3369.37 1904.74 3370.04 2329.75 3370.04C2657.41 3370.04 2895.74 3369.37 2902.82 3368.02" stroke="black" stroke-width="5.4" stroke-linejoin="round"/>
<circle cx="1811.14" cy="2261.8" r="27.38" fill="white"/>
<ellipse cx="1875.22" cy="2267.12" rx="27.38" ry="27.3801" fill="white"/>
<ellipse cx="2747.11" cy="578.213" rx="451.79" ry="451.789" fill="#9284b3"/>
<path d="M2745.47 0.498001C2539.08 0.505706 2348.37 110.617 2245.17 289.356C2141.94 468.079 2141.94 688.31 2245.17 867.033C2348.37 1045.77 2539.08 1155.88 2745.47 1155.89C2951.86 1155.88 3142.57 1045.77 3245.76 867.033C3348.95 688.299 3348.95 468.09 3245.76 289.356C3142.57 110.617 2951.86 0.505706 2745.47 0.498001Z" fill="#9284b3"/>
<path d="M2879.52 431.799L2864.09 420.937L3020.69 196.241L3036.12 207.103L2879.52 431.799Z" fill="white"/>
<path d="M2553.53 840.108L2598.97 775.131L2640.01 803.833L2594.56 868.81L2553.53 840.108Z" fill="white"/>
<path d="M2906.04 490.604L2692.17 796.355C2680.93 812.648 2661.87 819.128 2649.88 810.775L2589.13 768.338C2577.18 759.985 2576.81 740.021 2588.19 723.691L2802.06 417.941C2813.3 401.647 2832.36 395.13 2844.35 403.52L2905.1 445.995C2917.05 454.31 2917.43 474.274 2906.04 490.604Z" fill="white"/>
<path d="M2644.34 939.51C2640.19 945.651 2634.23 950.35 2627.29 952.956C2621.56 955.368 2615.01 954.778 2609.8 951.383L2471.22 854.336C2461.48 847.519 2461.25 831.038 2470.5 817.817C2474.66 811.639 2480.65 806.912 2487.62 804.295C2493.36 802.008 2499.85 802.636 2505.04 805.981L2643.62 903.028C2653.17 909.807 2653.47 926.213 2644.34 939.51Z" fill="white"/>
<circle cx="2932.67" cy="1439.88" r="161.921" fill="#d8d2e3"/>
<ellipse cx="2880.57" cy="1397.03" rx="52.1006" ry="52.1007" fill="white"/>
<ellipse cx="336.285" cy="2910.95" rx="161.921" ry="161.921" fill="#d8d2e3"/>
<ellipse cx="2431.48" cy="1297.51" rx="80.9415" ry="80.9416" fill="#d8d2e3"/>
<ellipse cx="295.458" cy="2864.95" rx="52.1008" ry="52.1007" fill="white"/>
<circle cx="3015.22" cy="2945.93" r="80.9415" fill="#d8d2e3"/>
<ellipse cx="2402.64" cy="1278" rx="28.8408" ry="28.8408" fill="white"/>
<ellipse cx="2981.55" cy="2929.19" rx="20.1135" ry="20.1136" fill="white"/>
<ellipse cx="1107.23" cy="280.142" rx="80.9415" ry="80.9416" fill="#d8d2e3"/>
<circle cx="1094.95" cy="272.95" r="28.8408" fill="white"/>
<circle cx="2770.78" cy="2234.42" r="299.795" fill="white"/>
<ellipse cx="2770.79" cy="2234.42" rx="230.876" ry="230.876" fill="#9284b3"/>
<path d="M2767.94 2187.68C2765.2 2174.27 2792.66 2152.1 2801.84 2147.27C2835.32 2129.74 2886.75 2142.96 2905.1 2176.44C2947.13 2253.23 2828.95 2362.71 2767.98 2389.72C2760.93 2384.1 2594 2259.22 2633.14 2179.29C2672.28 2099.36 2758.28 2140 2767.94 2187.68Z" fill="white"/>
</svg>
